<svg width="79" height="79" viewBox="0 0 79 79" fill="none" xmlns="http://www.w3.org/2000/svg">
<g id="Group 77">
<circle id="Ellipse 13" cx="39.5" cy="39.5" r="39" stroke="#0E5205"/>
<path id="Vector" d="M54.1081 37.499C54.3833 36.7708 54.5378 35.9745 54.5378 35.1441C54.5378 31.5369 51.651 28.6103 48.093 28.6103C46.7705 28.6103 45.5353 29.0186 44.5148 29.7129C42.6553 26.446 39.1845 24.2544 35.2035 24.2544C29.269 24.2544 24.4623 29.1275 24.4623 35.1441C24.4623 35.3279 24.469 35.5116 24.4757 35.6954C20.7163 37.0362 18.0176 40.6707 18.0176 44.9449C18.0176 50.3557 22.3476 54.7456 27.6847 54.7456H52.3895C57.1358 54.7456 60.9825 50.8457 60.9825 46.0338C60.9825 41.8209 58.0287 38.3021 54.1081 37.499Z" fill="#0E5205"/>
</g>
</svg>
