<svg width="45" height="45" viewBox="0 0 45 45" fill="none" xmlns="http://www.w3.org/2000/svg">
<path id="Vector" d="M16.875 18.2812C16.875 16.7282 15.6155 15.4688 14.0625 15.4688H12.6562C9.54932 15.4688 7.03125 17.9868 7.03125 21.0938V25.3125C7.03125 28.4194 9.54932 30.9375 12.6562 30.9375H14.0625C15.6155 30.9375 16.875 29.678 16.875 28.125V18.2812ZM32.3438 30.9375C35.4507 30.9375 37.9688 28.4194 37.9688 25.3125V21.0938C37.9688 17.9868 35.4507 15.4688 32.3438 15.4688H30.9375C29.3845 15.4688 28.125 16.7282 28.125 18.2812V28.125C28.125 29.678 29.3845 30.9375 30.9375 30.9375H32.3438ZM22.5 0C9.94746 0 0.402539 10.444 0 22.5V23.9062C0 24.6832 0.629297 25.3125 1.40625 25.3125H2.8125C3.58945 25.3125 4.21875 24.6832 4.21875 23.9062V22.5C4.21875 12.4198 12.4198 4.21875 22.5 4.21875C32.5802 4.21875 40.7812 12.4198 40.7812 22.5H40.7707C40.7777 22.7136 40.7812 37.0652 40.7812 37.0652C40.7812 39.1175 39.1175 40.7812 37.0652 40.7812H28.125C28.125 38.4513 26.2362 36.5625 23.9062 36.5625H21.0938C18.7638 36.5625 16.875 38.4513 16.875 40.7812C16.875 43.1112 18.7638 45 21.0938 45H37.0652C41.4475 45 45 41.4475 45 37.0652V22.5C44.5975 10.444 35.0525 0 22.5 0Z" fill="#0E5205"/>
</svg>
