<svg width="53" height="47" viewBox="0 0 53 47" fill="none" xmlns="http://www.w3.org/2000/svg">
<path id="Vector" d="M38.9679 9.03756e-05C31.2387 0.0276294 25.0278 6.37996 25.0278 14.0909V20.5626H4.41667C1.9783 20.5626 0 22.5362 0 24.9688V42.5938C0 45.0264 1.9783 47 4.41667 47H36.8056C39.2439 47 41.2222 45.0264 41.2222 42.5938V24.9688C41.2222 22.5362 39.2439 20.5626 36.8056 20.5626H32.3889V14.0358C32.3889 10.4007 35.3057 7.38055 38.9495 7.34383C42.63 7.30711 45.6389 10.2905 45.6389 13.9532V21.2969C45.6389 22.5178 46.6234 23.5 47.8472 23.5H50.7917C52.0154 23.5 53 22.5178 53 21.2969V13.9532C53 6.24227 46.697 -0.0274486 38.9679 9.03756e-05Z" fill="#0E5205"/>
</svg>
