<svg width="53" height="47" viewBox="0 0 53 47" fill="none" xmlns="http://www.w3.org/2000/svg">
<path id="Vector" d="M19.0505 0C16.312 0 14.0405 1.88184 13.3903 4.42461C13.317 4.42461 13.262 4.40625 13.1888 4.40625C9.95569 4.40625 7.3271 7.04082 7.3271 10.2812C7.3271 10.7219 7.38205 11.1533 7.4828 11.5664C4.80841 12.668 2.93084 15.2934 2.93084 18.3594C2.93084 19.516 3.22392 20.59 3.69103 21.5631C1.4929 22.8299 0 25.1799 0 27.9062C0 30.9631 1.86841 33.5885 4.52448 34.69C4.44205 35.1123 4.39626 35.5438 4.39626 35.9844C4.39626 39.6379 7.34541 42.5938 10.9906 42.5938C11.3662 42.5938 11.7325 42.5479 12.0897 42.4836C12.969 45.0998 15.4052 47 18.3177 47C21.963 47 24.9121 44.0441 24.9121 40.3906V5.875C24.9121 2.63457 22.2835 0 19.0505 0ZM52.7551 27.9062C52.7551 25.1799 51.2622 22.8299 49.0641 21.5631C49.5403 20.59 49.8243 19.516 49.8243 18.3594C49.8243 15.2934 47.9467 12.668 45.2723 11.5664C45.3639 11.1533 45.428 10.7219 45.428 10.2812C45.428 7.04082 42.7994 4.40625 39.5663 4.40625C39.4931 4.40625 39.4289 4.42461 39.3648 4.42461C38.7145 1.88184 36.4431 0 33.7046 0C30.4716 0 27.843 2.62539 27.843 5.875V40.3906C27.843 44.0441 30.7921 47 34.4374 47C37.3499 47 39.7861 45.0998 40.6654 42.4836C41.0226 42.5479 41.3889 42.5938 41.7645 42.5938C45.4097 42.5938 48.3588 39.6379 48.3588 35.9844C48.3588 35.5438 48.313 35.1123 48.2306 34.69C50.8867 33.5885 52.7551 30.9631 52.7551 27.9062Z" fill="#0E5205"/>
</svg>
