<svg width="46" height="54" viewBox="0 0 46 54" fill="none" xmlns="http://www.w3.org/2000/svg">
<path id="Vector" d="M28.466 15.8765V15.9504C26.5922 10.4015 24.0067 5.04251 21.0548 0C25.5873 3.08036 28.0682 10.5492 28.466 15.8765ZM31.8889 28.7149C32.6844 30.6348 33.0403 32.6708 33.0403 34.7279C33.0403 42.9246 26.99 49.6023 18.6159 49.4335L19.0136 49.4018C26.7807 44.4754 30.4548 36.8905 30.4548 27.7655C30.4548 23.7462 29.7744 19.7586 28.4764 15.9504C28.5811 17.1846 28.5811 18.4505 28.5811 19.6848C28.5811 29.3689 26.6865 45.1716 16.3758 49.2225C9.49852 48.0199 4.72526 41.9858 4.72526 34.7279C4.72526 26.7527 10.7337 19.7164 18.8985 19.7164C20.6571 19.7164 22.4261 20.0435 24.0381 20.7292C24.2161 19.1362 24.7185 17.5749 25.4408 16.1614C23.3577 15.4018 21.1281 15.0326 18.8985 15.0326C1.9932 15.0326 -6.08785 35.6984 5.30099 48.1254C12.4085 55.9951 25.3989 55.9212 32.496 48.1254C38.4207 41.6587 38.8708 33.1033 36.3063 26.9215C34.9769 27.7655 33.4695 28.3879 31.8889 28.7149ZM43.3196 1.23425C40.0746 8.24946 34.8094 6.21347 31.198 9.68415C29.9 10.9501 29.0417 13.2709 29.0417 15.0115C29.0417 16.4989 29.5127 17.8703 30.2978 19.1046C35.2595 17.9442 40.5875 14.252 42.6706 9.53646C42.5973 10.1167 42.1682 11.0555 41.9169 11.5619C39.792 15.328 35.1548 18.4822 31.4807 20.5182C33.0299 22.0373 35.0083 23.2399 37.2379 23.2399C45.5073 23.2399 48.7628 9.04065 43.3196 1.23425Z" fill="#0E5205"/>
</svg>
