<svg width="38" height="38" viewBox="0 0 38 38" fill="none" xmlns="http://www.w3.org/2000/svg">
<path id="Vector" d="M37.4783 14.7964L35.799 13.1171C35.1033 12.4214 33.9755 12.4214 33.2799 13.1171L32.8601 13.5369L24.4631 5.14006L24.8829 4.72021C25.5786 4.02456 25.5786 2.89673 24.8829 2.20115L23.2036 0.521738C22.5079 -0.173913 21.3801 -0.173913 20.6845 0.521738L11.4479 9.75831C10.7523 10.454 10.7523 11.5818 11.4479 12.2774L13.1273 13.9567C13.8229 14.6524 14.9508 14.6524 15.6463 13.9567L16.0662 13.5368L19.0051 16.4758L12.9904 22.4904L12.5706 22.0706C11.6431 21.1431 10.1393 21.1431 9.21179 22.0706L0.695634 30.5869C-0.231878 31.5144 -0.231878 33.0181 0.695634 33.9456L4.05441 37.3044C4.98192 38.2319 6.48566 38.2319 7.41318 37.3044L15.9294 28.7882C16.8569 27.8607 16.8569 26.3569 15.9294 25.4294L15.5096 25.0096L21.5242 18.9949L24.4632 21.9338L24.0433 22.3536C23.3477 23.0493 23.3477 24.1771 24.0433 24.8727L25.7227 26.552C26.4183 27.2477 27.5461 27.2477 28.2417 26.552L37.4783 17.3155C38.1739 16.6199 38.1739 15.4921 37.4783 14.7964Z" fill="#0E5205"/>
</svg>
