<svg width="28" height="45" viewBox="0 0 28 45" fill="none" xmlns="http://www.w3.org/2000/svg">
<path id="Vector" d="M10.3513 20.9531C10.6575 19.8545 10.955 18 11.5063 18C12.2325 18.1582 12.3463 20.0566 13.1338 21.2168C13.5363 19.1514 13.5975 13.7373 14.3675 13.5967C15.155 13.5352 16.0913 19.4414 16.2925 20.4082C17.1588 20.7686 20.5713 20.9883 20.5713 20.9883C20.7375 21.6299 18.4713 21.6562 17.0713 21.6738C16.6688 22.9746 16.5988 24.1084 16.0738 24.1348C15.6625 24.1523 15.3563 21.6035 14.5425 19.7754L13.72 25.5322C13.335 26.6748 12.3637 23.5547 11.8037 22.0781C11.515 22.0693 6.34375 21.9375 7.63875 21.3926L10.3513 20.9531ZM19.95 39.375C21.805 39.375 21.805 36.5625 19.95 36.5625H8.05C6.195 36.5625 6.195 39.375 8.05 39.375H19.95ZM17.85 45C19.705 45 19.705 42.1875 17.85 42.1875H10.15C8.295 42.1875 8.295 45 10.15 45H17.85ZM20.8425 32.5635C21.1225 30.9023 21.2975 29.3643 21.8838 28.2744C22.575 26.9824 23.2925 25.8047 23.9838 24.6709C26.1363 21.1201 28 18.0615 28 13.6406C28 6.11719 21.7175 0 14 0C6.2825 0 0 6.11719 0 13.6406C0 18.0527 1.86375 21.1201 4.01625 24.6709C4.7075 25.8047 5.41625 26.9824 6.11625 28.2744C6.7025 29.373 6.8775 30.8936 7.1575 32.5723C7.46375 34.418 10.3162 33.9521 10.01 32.124C9.695 30.2168 9.52 28.5469 8.67125 26.9736C5.81875 21.665 2.8875 18.5713 2.8875 13.6406C2.8875 7.67285 7.875 2.8125 14 2.8125C20.125 2.8125 25.1125 7.67285 25.1125 13.6406C25.1125 18.5713 22.1812 21.665 19.3288 26.9648C18.48 28.5469 18.305 30.252 17.99 32.1152C17.6925 33.9258 20.5275 34.4355 20.8425 32.5635Z" fill="#0E5205"/>
</svg>
