<svg width="43" height="38" viewBox="0 0 43 38" fill="none" xmlns="http://www.w3.org/2000/svg">
<path id="Vector" d="M21.5 0C16.3049 0 12.0938 4.18668 12.0938 9.35156C12.0938 13.5271 18.2414 21.1375 20.5967 23.8999C21.0737 24.4595 21.927 24.4595 22.4033 23.8999C24.7586 21.1375 30.9062 13.5271 30.9062 9.35156C30.9062 4.18668 26.6951 0 21.5 0ZM21.5 12.4688C19.7681 12.4688 18.3646 11.0734 18.3646 9.35156C18.3646 7.62969 19.7681 6.23438 21.5 6.23438C23.2319 6.23438 24.6354 7.62969 24.6354 9.35156C24.6354 11.0734 23.2319 12.4688 21.5 12.4688ZM1.50201 16.0275C1.05871 16.2038 0.678691 16.5081 0.410971 16.9011C0.14325 17.2941 0.000106172 17.7579 0 18.2326L0 36.811C0 37.6512 0.853281 38.2256 1.63788 37.9139L11.9444 33.25V15.9511C11.2845 14.7651 10.7448 13.6102 10.3581 12.5059L1.50201 16.0275ZM21.5 26.6943C20.4496 26.6943 19.456 26.2356 18.7744 25.4355C17.3068 23.7136 15.7458 21.7528 14.3333 19.7414V33.2493L28.6667 37.9993V19.7422C27.2542 21.7528 25.694 23.7144 24.2256 25.4363C23.544 26.2356 22.5504 26.6943 21.5 26.6943ZM41.3621 11.9611L31.0556 16.625V38L41.498 33.8475C41.9413 33.6713 42.3214 33.367 42.5892 32.974C42.8569 32.5809 43 32.1171 43 31.6424V13.064C43 12.2238 42.1467 11.6494 41.3621 11.9611Z" fill="#0E5205"/>
</svg>
