<svg width="32" height="42" viewBox="0 0 32 42" fill="none" xmlns="http://www.w3.org/2000/svg">
<path id="Vector" d="M31.5262 31.0476L24.8685 23.6248H27.4211C28.1719 23.6248 28.8361 23.2147 29.1528 22.5535C29.4695 21.894 29.3653 21.1377 28.8795 20.5807L22.3685 13.1252H24.776C25.5344 13.1252 26.2177 12.6863 26.5144 12.0088C26.8078 11.3419 26.6694 10.5659 26.1611 10.0335L16.9717 0.396813C16.4692 -0.132271 15.5317 -0.132271 15.0283 0.396813L5.8381 10.0335C5.32975 10.5659 5.19225 11.3419 5.48476 12.0088C5.78143 12.6863 6.46561 13.1252 7.22396 13.1252H9.63152L3.1197 20.5824C2.63552 21.1385 2.53135 21.894 2.84719 22.5543C3.16387 23.2147 3.82722 23.6248 4.5789 23.6248H7.13146L0.473807 31.0476C-0.0262049 31.6045 -0.139541 32.3674 0.177133 33.0376C0.48964 33.6979 1.17716 34.1244 1.92801 34.1244H13.3333V36.13L10.809 40.1002C10.3657 40.973 11.0107 42 12.0016 42H19.9984C20.9893 42 21.6343 40.973 21.191 40.1002L18.6667 36.13V34.1244H30.072C30.8228 34.1244 31.5104 33.6979 31.8229 33.0376C32.1395 32.3674 32.0262 31.6045 31.5262 31.0476Z" fill="#0E5205"/>
</svg>
