<svg width="54" height="38" viewBox="0 0 54 38" fill="none" xmlns="http://www.w3.org/2000/svg">
<path id="Vector" d="M45.36 16.5063C45.7059 15.5987 45.9 14.6063 45.9 13.5714C45.9 9.07589 42.2719 5.42857 37.8 5.42857C36.1378 5.42857 34.5853 5.9375 33.3028 6.80268C30.9656 2.73125 26.6034 0 21.6 0C14.1413 0 8.1 6.07321 8.1 13.5714C8.1 13.8004 8.10844 14.0295 8.11688 14.2585C3.39188 15.9295 0 20.4589 0 25.7857C0 32.529 5.44219 38 12.15 38H43.2C49.1653 38 54 33.1397 54 27.1429C54 21.8924 50.2875 17.5071 45.36 16.5063ZM34.1466 24.0299L25.2534 32.9701C24.7303 33.496 23.8697 33.496 23.3466 32.9701L14.4534 24.0299C13.6013 23.1732 14.2088 21.7143 15.4069 21.7143H20.925V12.2143C20.925 11.4679 21.5325 10.8571 22.275 10.8571H26.325C27.0675 10.8571 27.675 11.4679 27.675 12.2143V21.7143H33.1931C34.3913 21.7143 34.9988 23.1732 34.1466 24.0299Z" fill="#0E5205"/>
</svg>
