<svg width="37" height="37" viewBox="0 0 37 37" fill="none" xmlns="http://www.w3.org/2000/svg">
<path id="Vector" d="M18.995 0.444476C8.99491 0.198993 0.689679 8.10624 0.444196 18.1063C0.198712 28.1064 8.10596 36.4117 18.1061 36.6572C28.1062 36.9026 36.4114 28.9954 36.6569 18.9953C36.9024 8.99519 28.9951 0.68996 18.995 0.444476ZM30.2903 16.4648L30.2779 16.9707C30.2674 17.3993 30.0153 17.7854 29.6273 17.9673L28.4899 18.5019C28.3093 18.5868 28.1094 18.6224 27.9106 18.6051C27.7118 18.5877 27.521 18.5181 27.3578 18.4032L26.0501 17.4842C25.909 17.3852 25.7472 17.3196 25.577 17.2925C25.4067 17.2655 25.2326 17.2775 25.0677 17.3279L24.8727 17.3874C24.1587 17.6058 23.8488 18.4427 24.2475 19.0742L25.1786 20.5479C25.3804 20.8677 25.7291 21.0655 26.1073 21.0748L26.7067 21.0895C27.3317 21.1048 27.8259 21.6239 27.8106 22.2489L27.7903 23.0768C27.7843 23.3214 27.6988 23.5582 27.5473 23.7503L26.1343 25.5405C26.0272 25.6766 25.9525 25.8355 25.9162 26.0048L25.5613 27.6639C25.5102 27.903 25.3828 28.1191 25.1984 28.2804C24.491 28.897 23.8606 29.5968 23.3209 30.3645L22.3346 31.7685C22.1428 32.0415 21.8865 32.2629 21.5886 32.4131C21.2906 32.5633 20.9602 32.6376 20.6267 32.6295C19.8593 32.6107 19.1684 32.1598 18.8421 31.4651C18.4617 30.6553 18.2751 29.768 18.2971 28.8736L18.3507 26.6914C18.366 26.0664 17.8718 25.5473 17.2468 25.5319L15.3574 25.4856C14.2994 25.4596 13.2957 25.0142 12.5657 24.2482C11.8363 23.4817 11.441 22.4569 11.4668 21.3991L11.492 20.3726C11.5228 19.1176 12.1432 17.9501 13.1655 17.2213L15.2162 15.7601C15.9194 15.2593 16.766 14.9999 17.6291 15.0209L17.694 15.0225C18.3132 15.0377 18.9207 15.1965 19.4673 15.4875L20.5288 16.0513C20.7942 16.1922 21.104 16.2217 21.391 16.1338L24.8734 15.0672C25.3393 14.9245 25.6617 14.5 25.6736 14.013C25.6889 13.388 25.1947 12.8689 24.5697 12.8536L23.8331 12.8355C23.533 12.8281 23.2483 12.7021 23.041 12.4844L22.5482 11.9668C22.4457 11.8591 22.323 11.7726 22.1871 11.7124C22.0512 11.6521 21.9048 11.6193 21.7562 11.6157L15.1817 11.4543C14.5567 11.4389 14.0624 10.9198 14.0778 10.2948L14.0857 9.97359C14.0984 9.45449 14.4629 9.01051 14.9698 8.89657L16.0312 8.6589C16.306 8.59698 16.5481 8.43563 16.7101 8.2051L17.3217 7.33544C17.5389 7.02591 17.897 6.84549 18.2751 6.85478L20.0427 6.89817C20.6677 6.91351 21.1868 6.41926 21.2021 5.7943L21.241 4.21C27.0018 5.28942 31.541 9.73949 32.7953 15.3939L31.4497 15.3609C30.8248 15.3456 30.3056 15.8398 30.2903 16.4648Z" fill="#0E5205"/>
</svg>
