<svg width="145" height="174" viewBox="0 0 145 174" fill="none" xmlns="http://www.w3.org/2000/svg">
<g id="Clip path group">
<mask id="mask0_502_166" style="mask-type:luminance" maskUnits="userSpaceOnUse" x="0" y="0" width="145" height="174">
<g id="__lottie_element_1343">
<path id="Vector" d="M144.034 0.488281H0.179077V173.114H144.034V0.488281Z" fill="white"/>
</g>
</mask>
<g mask="url(#mask0_502_166)">
<g id="Group">
<g id="Group_2">
<g id="Group_3">
<g id="Group_4">
<path id="Vector_2" d="M68.0839 49.5781C68.0839 49.5781 76.644 70.6324 76.8876 91.018C76.6626 93.3053 80.5072 90.9038 82.3465 77.7441C85.0326 84.3296 77.5066 102.174 77.5087 102.295C77.4495 102.008 74.1204 117.627 81.1279 143.849C78.4153 144.979 68.1196 148.144 62.0162 142.944C70.8322 111.071 69.8568 85.3025 70.399 81.4953C70.6923 79.416 62.5417 67.5378 62.5725 67.5348C62.6179 67.5299 65.8054 68.6462 71.3453 73.9703C70.23 58.4603 68.0839 49.5781 68.0839 49.5781Z" fill="#0E5205"/>
</g>
</g>
</g>
<g id="Group_5">
<g id="Group_6">
<path id="Vector_3" d="M77.9906 9.82339C48.2962 29.8692 68.8342 48.8833 68.1744 46.5905C68.1968 46.7307 68.2934 31.2051 73.7029 26.3866C68.7564 33.7866 69.3974 46.9416 69.3974 46.9416C69.3974 46.9416 93.9738 38.7956 77.9906 9.82339Z" fill="#0E5205"/>
</g>
<g id="Group_7">
<path id="Vector_4" d="M25.2177 40.6201C50.6225 25.966 57.2422 47.9 55.792 46.5918C55.8872 46.6585 44.4294 41.1582 38.9429 43.4091C46.1626 42.4253 55.6114 47.6175 55.6114 47.6175C55.6114 47.6175 40.7987 62.7763 25.2177 40.6201Z" fill="#0E5205"/>
</g>
<g id="Group_8">
<path id="Vector_5" d="M33.7366 68.5078C43.9693 55.4214 52.0999 65.536 51.0607 65.1566C51.1248 65.1715 43.9404 64.714 41.5366 67.0603C45.1194 65.0117 51.1835 65.7337 51.1835 65.7337C51.1835 65.7337 46.6207 76.8378 33.7366 68.5078Z" fill="#0E5205"/>
</g>
<g id="Group_9">
<path id="Vector_6" d="M52.5323 81.9244C54.3504 73.3874 60.5198 76.2913 59.9417 76.3516C59.9754 76.3438 56.4772 77.7826 55.8824 79.4443C57.1026 77.6516 60.1326 76.5958 60.1326 76.5958C60.1326 76.5958 60.5354 82.8906 52.5323 81.9244Z" fill="#0E5205"/>
</g>
<g id="Group_10">
<path id="Vector_7" d="M109.159 41.474C81.9077 37.1688 83.4886 58.6633 84.3211 57.0255C84.2601 57.1163 92.4682 48.4232 98.0454 48.5504C91.3733 50.1202 84.8255 57.8655 84.8255 57.8655C84.8255 57.8655 102.945 66.1848 109.159 41.474Z" fill="#0E5205"/>
</g>
<g id="Group_11">
<path id="Vector_8" d="M48.7751 56.8898C60.905 53.8705 61.0402 63.6346 60.5998 62.9282C60.631 62.9668 56.5829 59.3672 54.0706 59.6449C57.1441 60.09 60.4053 63.3273 60.4053 63.3273C60.4053 63.3273 52.5557 67.7977 48.7751 56.8898Z" fill="#0E5205"/>
</g>
<g id="Group_12">
<path id="Vector_9" d="M109.065 68.8215C92.932 59.5156 88.728 73.4447 89.649 72.6139C89.5885 72.6563 96.8649 69.1633 100.349 70.5927C95.7642 69.968 89.7636 73.2653 89.7636 73.2653C89.7636 73.2653 99.1705 82.8918 109.065 68.8215Z" fill="#0E5205"/>
</g>
<g id="Group_13">
<path id="Vector_10" d="M95.7612 93.6461C94.5391 79.7361 84.1768 83.1446 85.083 83.3529C85.031 83.334 90.305 86.3004 90.9254 89.0549C89.3376 85.9705 84.7323 83.7034 84.7323 83.7034C84.7323 83.7034 82.8651 93.6203 95.7612 93.6461Z" fill="#0E5205"/>
</g>
</g>
</g>
</g>
</g>
</svg>
