<svg width="50" height="35" viewBox="0 0 50 35" fill="none" xmlns="http://www.w3.org/2000/svg">
<path id="Vector" d="M7.5 15C10.2578 15 12.5 12.7578 12.5 10C12.5 7.24219 10.2578 5 7.5 5C4.74219 5 2.5 7.24219 2.5 10C2.5 12.7578 4.74219 15 7.5 15ZM42.5 15C45.2578 15 47.5 12.7578 47.5 10C47.5 7.24219 45.2578 5 42.5 5C39.7422 5 37.5 7.24219 37.5 10C37.5 12.7578 39.7422 15 42.5 15ZM45 17.5H40C38.625 17.5 37.3828 18.0547 36.4766 18.9531C39.625 20.6797 41.8594 23.7969 42.3438 27.5H47.5C48.8828 27.5 50 26.3828 50 25V22.5C50 19.7422 47.7578 17.5 45 17.5ZM25 17.5C29.8359 17.5 33.75 13.5859 33.75 8.75C33.75 3.91406 29.8359 0 25 0C20.1641 0 16.25 3.91406 16.25 8.75C16.25 13.5859 20.1641 17.5 25 17.5ZM31 20H30.3516C28.7266 20.7812 26.9219 21.25 25 21.25C23.0781 21.25 21.2812 20.7812 19.6484 20H19C14.0312 20 10 24.0313 10 29V31.25C10 33.3203 11.6797 35 13.75 35H36.25C38.3203 35 40 33.3203 40 31.25V29C40 24.0313 35.9688 20 31 20ZM13.5234 18.9531C12.6172 18.0547 11.375 17.5 10 17.5H5C2.24219 17.5 0 19.7422 0 22.5V25C0 26.3828 1.11719 27.5 2.5 27.5H7.64844C8.14062 23.7969 10.375 20.6797 13.5234 18.9531Z" fill="#0E5205"/>
</svg>
