<svg width="37" height="37" viewBox="0 0 37 37" fill="none" xmlns="http://www.w3.org/2000/svg">
<path id="Vector" d="M33.0357 0H3.96429C1.77567 0 0 1.77567 0 3.96429V33.0357C0 35.2243 1.77567 37 3.96429 37H33.0357C35.2243 37 37 35.2243 37 33.0357V3.96429C37 1.77567 35.2243 0 33.0357 0ZM28.9971 13.1152C29.0136 13.3464 29.0136 13.5859 29.0136 13.8172C29.0136 20.9777 23.5627 29.2283 13.6025 29.2283C10.5301 29.2283 7.6808 28.3364 5.28571 26.8002C5.72344 26.8498 6.14464 26.8663 6.59063 26.8663C9.12612 26.8663 11.4551 26.0074 13.3134 24.5538C10.9348 24.5042 8.93616 22.9433 8.25067 20.796C9.08482 20.9199 9.83638 20.9199 10.6953 20.6969C8.21763 20.1931 6.35938 18.0127 6.35938 15.3781V15.3121C7.0779 15.7167 7.92031 15.9645 8.80402 15.9975C8.06107 15.5034 7.45202 14.8329 7.03121 14.0461C6.61041 13.2592 6.39095 12.3805 6.39241 11.4882C6.39241 10.4806 6.6567 9.55558 7.12746 8.75446C9.79509 12.0415 13.8007 14.1888 18.2935 14.4201C17.5254 10.7449 20.2757 7.76339 23.5792 7.76339C25.1402 7.76339 26.5442 8.41585 27.5353 9.47299C28.7576 9.24174 29.9304 8.7875 30.971 8.16808C30.5663 9.42344 29.7156 10.4806 28.5924 11.1496C29.6826 11.0339 30.7397 10.7283 31.7143 10.3071C30.9792 11.3891 30.0542 12.3471 28.9971 13.1152Z" fill="white"/>
</svg>
